# xmcd
#
# Track frame offsets: 
#        150
#        20323
#        36645
#        56763
#
# Disc length: 971 seconds
#
# Revision: 0
# Processed by: cddbd v1.5.2PL0 Copyright (c) Steve Scherf et al.
# Submitted via: ExactAudioCopyFreeDBPlugin 1.0
#
DISCID=3103c904
DTITLE=Spontania feat. JUJU - 君のすべてに
DYEAR=2008
DGENRE=Pop
TTITLE0=君のすべてに
TTITLE1=Spontania - FIESTA
TTITLE2=君のすべてに (Instrumental)
TTITLE3=Spontania - FIESTA (Instrumental)
EXTD=
EXTT0=
EXTT1=
EXTT2=
EXTT3=
PLAYORDER=
